<svg width="28" height="28" viewBox="0 0 28 28" fill="none" xmlns="http://www.w3.org/2000/svg">
<rect width="28" height="28" rx="2" fill="#FAFAFA"/>
<path d="M21.1309 10.168C21.459 11.3164 21.459 13.7773 21.459 13.7773C21.459 13.7773 21.459 16.2109 21.1309 17.3867C20.9668 18.043 20.4473 18.5352 19.8184 18.6992C18.6426 19 13.9941 19 13.9941 19C13.9941 19 9.31836 19 8.14258 18.6992C7.51367 18.5352 6.99414 18.043 6.83008 17.3867C6.50195 16.2109 6.50195 13.7773 6.50195 13.7773C6.50195 13.7773 6.50195 11.3164 6.83008 10.168C6.99414 9.51172 7.51367 8.99219 8.14258 8.82812C9.31836 8.5 13.9941 8.5 13.9941 8.5C13.9941 8.5 18.6426 8.5 19.8184 8.82812C20.4473 8.99219 20.9668 9.51172 21.1309 10.168ZM12.4629 15.9922L16.3457 13.7773L12.4629 11.5625V15.9922Z" fill="#595A5A"/>
</svg>
